===========Visit DUSTorrents.com for more Exclusives==============

Visit DusTorrents.com for more exclusives....

DusTorrents.com a Complete FreeLeech Site!! Registrations are absolutely FREE!!

Register by visiting..... [url]http://www.dustorrents.com/register.php[/url]

========================================================

[CENTER][B][FONT=Comic Sans MS][SIZE=5][COLOR="#FF0000"]Damini (1993) 1/3 DvD RiP XviD 5.1 AC3 [Team DUS] 3rd Anniversary Release[/COLOR][/SIZE][/FONT][/B]

[img]http://img834.imageshack.us/img834/7674/dus5.png[/img]

[img]http://www.tamilmask.com/data/images/film/112409.gif[/img][/CENTER]

[CODE]General
[B][FONT=Comic Sans MS][COLOR="#FF0000"]Source                           : DvD 9 @ DDR Thanks.
Ripper                           : I Proud To Be An Indian [Team DUS][/COLOR][/FONT][/B]
Complete name                    : D:\Download\ripzz\damini.avi
Format                           : AVI
Format/Info                      : Audio Video Interleave
File size                        : 1.45 GiB
Duration                         : 2h 42mn
Overall bit rate                 : 1 278 Kbps

Video
ID                               : 0
Format                           : MPEG-4 Visual
Format profile                   : Advanced Simple@L5
Format settings, BVOP            : 2
Format settings, QPel            : Yes
Format settings, GMC             : No warppoints
Format settings, Matrix          : Default (H.263)
Codec ID                         : XVID
Codec ID/Hint                    : XviD
Duration                         : 2h 42mn
Bit rate                         : 821 Kbps
Width                            : 720 pixels
Height                           : 384 pixels
Display aspect ratio             : 1.875
Frame rate                       : 29.970 fps
Color space                      : YUV
Chroma subsampling               : 4:2:0
Bit depth                        : 8 bits
Scan type                        : Progressive
Compression mode                 : Lossy
Bits/(Pixel*Frame)               : 0.099
Stream size                      : 955 MiB (64%)
Writing library                  : XviD 1.2.1 (UTC 2008-12-04)

Audio
ID                               : 1
Format                           : AC-3
Format/Info                      : Audio Coding 3
Mode extension                   : CM (complete main)
Codec ID                         : 2000
Duration                         : 2h 42mn
Bit rate mode                    : Constant
Bit rate                         : 448 Kbps
Channel(s)                       : 6 channels
Channel positions                : Front: L C R, Side: L R, LFE
Sampling rate                    : 48.0 KHz
Bit depth                        : 16 bits
Compression mode                 : Lossy
Stream size                      : 521 MiB (35%)
Alignment                        : Aligned on interleaves
Interleave, duration             : 64 ms (1.92 video frames)
Interleave, preload duration     : 192 ms
Title                            : VTS_02_1 T80 3_2ch 448Kbps DELAY 0ms[/CODE]
[CENTER]
[img]http://img21.imageshack.us/img21/3431/5vh6rom324kkccccthg.gif[/img]
 
http://img683.imageshack.us/img683/3826/vlcsnap2011081118h14m36.png
 
http://img221.imageshack.us/img221/3387/vlcsnap2011081118h18m17t.png
 
http://img37.imageshack.us/img37/8784/vlcsnap2011081118h19m04.png
 
http://img543.imageshack.us/img543/508/vlcsnap2011081118h19m35.png
 
http://img849.imageshack.us/img849/5623/vlcsnap2011081118h21m04.png
 
http://img43.imageshack.us/img43/7307/vlcsnap2011081118h21m37.png
 
http://img717.imageshack.us/img717/4715/vlcsnap2011081118h24m14.png

:yahoo: :yahoo: [/CENTER]